<svg xmlns="http://www.w3.org/2000/svg" width="20.6" height="24.6" viewBox="0 0 20.6 24.6">
  <g id="Icon" transform="translate(0.3 0.3)">
    <path id="Path" d="M4.036,6.38H.487a.462.462,0,1,1,0-.923H4.036a.9.9,0,1,0,0-1.806H1.915A1.931,1.931,0,0,1,.257,2.74a1.755,1.755,0,0,1,0-1.828A1.931,1.931,0,0,1,1.915,0h3.55a.473.473,0,0,1,.483.462.473.473,0,0,1-.483.462H1.915a.955.955,0,0,0-.821.451.868.868,0,0,0,0,.9.955.955,0,0,0,.821.451H4.036A1.87,1.87,0,0,1,5.948,4.555,1.87,1.87,0,0,1,4.036,6.38Z" transform="translate(7.024 4.385)" fill="#a0a6a7" stroke="#a0a6a7" stroke-width="0.6"/>
    <path id="Path-2" data-name="Path" d="M.483,8.762a.5.5,0,0,1-.342-.135A.451.451,0,0,1,0,8.3V.462A.473.473,0,0,1,.483,0,.473.473,0,0,1,.967.462V8.3a.451.451,0,0,1-.142.326.5.5,0,0,1-.342.135Z" transform="translate(9.517 3.194)" fill="#a0a6a7" stroke="#a0a6a7" stroke-width="0.6"/>
    <path id="Shape" d="M19.517,24a.493.493,0,0,1-.341-.136l-1.562-1.49-1.561,1.49a.5.5,0,0,1-.683,0l-1.561-1.49-1.562,1.49a.5.5,0,0,1-.684,0L10,22.374l-1.561,1.49A.491.491,0,0,1,8.1,24a.5.5,0,0,1-.342-.136l-1.562-1.49-1.562,1.49a.5.5,0,0,1-.683,0l-1.562-1.49L.825,23.864A.494.494,0,0,1,.482,24,.5.5,0,0,1,.3,23.965a.462.462,0,0,1-.3-.427V.462A.456.456,0,0,1,.141.135,1.925,1.925,0,0,1,.85,0H19.517a.494.494,0,0,1,.342.135A1.7,1.7,0,0,1,20,.817V23.539A.473.473,0,0,1,19.517,24Zm-5.71-2.74a.5.5,0,0,1,.342.135l1.561,1.491,1.562-1.491a.5.5,0,0,1,.683,0l1.078,1.03V1.923a1,1,0,0,0-1-1H1.966a1,1,0,0,0-1,1v20.5l1.078-1.03a.494.494,0,0,1,.342-.135.5.5,0,0,1,.342.135L4.29,22.886l1.562-1.491a.5.5,0,0,1,.683,0L8.1,22.886l1.562-1.491a.5.5,0,0,1,.683,0L11.9,22.886l1.562-1.491A.494.494,0,0,1,13.807,21.26Z" fill="#a0a6a7" stroke="#a0a6a7" stroke-width="0.6"/>
    <path id="Path-3" data-name="Path" d="M11.784.923H.483A.473.473,0,0,1,0,.462.473.473,0,0,1,.483,0h11.3a.473.473,0,0,1,.483.462A.473.473,0,0,1,11.784.923Z" transform="translate(3.867 14.596)" fill="#a0a6a7" stroke="#a0a6a7" stroke-width="0.6"/>
    <path id="Path-4" data-name="Path" d="M11.784.923H.483A.473.473,0,0,1,0,.462.473.473,0,0,1,.483,0h11.3a.473.473,0,0,1,.483.462A.473.473,0,0,1,11.784.923Z" transform="translate(3.867 17.616)" fill="#a0a6a7" stroke="#a0a6a7" stroke-width="0.6"/>
  </g>
</svg>
