<svg xmlns="http://www.w3.org/2000/svg" viewBox="0 0 191.31 143.49"><title>Asset 3</title><g id="Layer_2" data-name="Layer 2"><g id="Layer_1-2" data-name="Layer 1"><path d="M42.4,116.61A123.57,123.57,0,0,1,11,89c-3.44-4.25-6.43-8.86-9.6-13.32-1.87-2.64-1.78-5.29,0-8C24.48,32.77,55.53,11.59,98.83,12a92.36,92.36,0,0,1,36.24,7.91c2.17.95,3.47.68,5.11-1,5.25-5.49,10.69-10.81,16.08-16.15,3.33-3.3,6.85-3.63,9.49-1s2.29,6.16-1,9.49Q100,76,35.21,140.68c-3.35,3.35-6.82,3.7-9.49,1.1s-2.38-6.16.92-9.48C31.73,127.18,36.86,122.12,42.4,116.61ZM66,92.16c-9.23-17.07-8-33,3.7-45.14A35.45,35.45,0,0,1,89.46,36.44,35.87,35.87,0,0,1,115.8,42l12-12A77.92,77.92,0,0,0,101,24.08c-37.74-1.44-65.32,16.53-86.7,46a3.89,3.89,0,0,0,.11,3.54,114.19,114.19,0,0,0,36.44,33.74ZM107,50.91A23.6,23.6,0,0,0,74.85,83Z"/><path d="M66.07,126.36c2.77-2.65,5.49-5.38,8.37-7.92a4,4,0,0,1,3-.84c38,7.26,68.24-6.71,92.57-35,11.08-12.88,10.79-8.48-.06-21.71-5.56-6.78-12.4-12.51-18.63-18.69l8.23-7.83a4.79,4.79,0,0,1,1.24.68,129.13,129.13,0,0,1,29.11,32.33c1.88,3,2,5.69,0,8.66-18,27.49-41.81,46.86-74.62,53.62A97.63,97.63,0,0,1,69,127.93a19.43,19.43,0,0,1-2.12-.69C66.72,127.17,66.59,126.91,66.07,126.36Z"/><path d="M86.26,106c3.66-3.45,6.74-6.51,10-9.35A8.27,8.27,0,0,1,100,95.12a23.82,23.82,0,0,0,19.16-19,13.19,13.19,0,0,1,2.7-5,54.12,54.12,0,0,1,8-8.24c3.58,13.09.62,24.19-8.2,33.64A34.51,34.51,0,0,1,86.26,106Z"/></g></g></svg>