<svg xmlns="http://www.w3.org/2000/svg" width="23" height="22" viewBox="0 0 23 22">
  <g id="Icon" transform="translate(0 0)">
    <path id="Shape" d="M5.507,13H5.493a.767.767,0,0,1-.543-.227L1.618,9.44A5.515,5.515,0,1,1,9.382,1.6a5.553,5.553,0,0,1,0,7.836L6.05,12.773A.767.767,0,0,1,5.507,13ZM5.477,1.62A3.895,3.895,0,0,0,2.711,8.269L5.5,11.057,8.29,8.269a3.88,3.88,0,0,0,0-5.494A3.915,3.915,0,0,0,5.517,1.62h-.04Z" transform="translate(12)" fill="#a0a6a7"/>
    <path id="Shape-2" data-name="Shape" d="M7.381,20.316a.993.993,0,0,1-.456-.11L.462,16.82A.837.837,0,0,1,0,16.084V.85A.839.839,0,0,1,.462.113a1,1,0,0,1,.923,0L7.848,3.5a.837.837,0,0,1,.462.736V19.47a.839.839,0,0,1-.462.736,1,1,0,0,1-.456.11H7.381ZM1.847,2.306V15.593l4.616,2.42V4.726Z" transform="translate(0 1.684)" fill="#a0a6a7"/>
    <path id="Path" d="M.923,19.832a.99.99,0,0,1-.462-.11A.836.836,0,0,1,0,18.986V3.751a.836.836,0,0,1,.462-.736L6,.112A1,1,0,0,1,6.707.031a.915.915,0,0,1,.559.4.809.809,0,0,1-.342,1.151L1.847,4.242V17.53l5.078-2.666a1,1,0,0,1,.926,0,.815.815,0,0,1,0,1.471L1.385,19.722A.99.99,0,0,1,.923,19.832Z" transform="translate(6.463 2.168)" fill="#a0a6a7"/>
    <path id="Path-2" data-name="Path" d="M7.386,12.7a.99.99,0,0,1-.462-.11L.462,9.2A.836.836,0,0,1,0,8.464V.846A.887.887,0,0,1,.923,0a.887.887,0,0,1,.923.846V7.973l4.616,2.421v-8.7a.927.927,0,0,1,1.847,0V11.849a.836.836,0,0,1-.462.736A.99.99,0,0,1,7.386,12.7Z" transform="translate(12.926 9.304)" fill="#a0a6a7"/>
    <path id="Shape-3" data-name="Shape" d="M2.5,5A2.5,2.5,0,0,1,.733.733,2.5,2.5,0,1,1,2.5,5Zm0-3.334a.833.833,0,1,0,.833.833A.834.834,0,0,0,2.5,1.667Z" transform="translate(15 3)" fill="#a0a6a7"/>
  </g>
</svg>
