<svg xmlns="http://www.w3.org/2000/svg" width="13.983" height="14.009" viewBox="0 0 13.983 14.009">
  <path id="phone" d="M15.094,11.739V13.7A1.305,1.305,0,0,1,13.671,15a12.918,12.918,0,0,1-5.633-2A12.728,12.728,0,0,1,4.121,9.082a12.918,12.918,0,0,1-2-5.659A1.305,1.305,0,0,1,3.416,2H5.374A1.305,1.305,0,0,1,6.68,3.123a8.381,8.381,0,0,0,.457,1.834,1.305,1.305,0,0,1-.294,1.377l-.829.829A10.444,10.444,0,0,0,9.93,11.08l.829-.829a1.305,1.305,0,0,1,1.377-.294,8.381,8.381,0,0,0,1.834.457,1.305,1.305,0,0,1,1.123,1.325Z" transform="translate(-1.611 -1.5)" fill="none" stroke="#707070" stroke-linecap="round" stroke-linejoin="round" stroke-width="1"/>
</svg>
