<svg xmlns="http://www.w3.org/2000/svg" width="21.6" height="21.6" viewBox="0 0 21.6 21.6">
  <g id="Icon" transform="translate(0.8 0.8)">
    <circle id="Oval" cx="2.727" cy="2.727" r="2.727" transform="translate(7.273 7.273)" fill="none" stroke="#a0a6a7" stroke-linecap="round" stroke-linejoin="round" stroke-width="1.6"/>
    <path id="Path" d="M16.727,12.727a1.5,1.5,0,0,0,.3,1.655l.055.055a1.819,1.819,0,1,1-2.573,2.573l-.055-.055a1.512,1.512,0,0,0-2.564,1.073v.155a1.818,1.818,0,1,1-3.636,0V18.1a1.5,1.5,0,0,0-.982-1.373,1.5,1.5,0,0,0-1.655.3l-.055.055a1.819,1.819,0,1,1-2.573-2.573l.055-.055a1.512,1.512,0,0,0-1.073-2.564H1.818a1.818,1.818,0,0,1,0-3.636H1.9a1.5,1.5,0,0,0,1.373-.982,1.5,1.5,0,0,0-.3-1.655l-.055-.055A1.819,1.819,0,1,1,5.491,2.991l.055.055a1.5,1.5,0,0,0,1.655.3h.073a1.5,1.5,0,0,0,.909-1.373V1.818a1.818,1.818,0,0,1,3.636,0V1.9a1.512,1.512,0,0,0,2.564,1.073l.055-.055a1.819,1.819,0,1,1,2.573,2.573l-.055.055a1.5,1.5,0,0,0-.3,1.655v.073a1.5,1.5,0,0,0,1.373.909h.155a1.818,1.818,0,0,1,0,3.636H18.1A1.5,1.5,0,0,0,16.727,12.727Z" fill="none" stroke="#a0a6a7" stroke-linecap="round" stroke-linejoin="round" stroke-width="1.6"/>
  </g>
</svg>
