<svg xmlns="http://www.w3.org/2000/svg" viewBox="0 0 178.66 108.42"><title>Asset 2</title><g id="Layer_2" data-name="Layer 2"><g id="Layer_1-2" data-name="Layer 1"><path d="M177.05,49.05C137.52-16.32,41.18-16.36,1.65,49c-2.14,3.54-2.26,6.41,0,9.91,20.57,32.08,50.19,48,88,49.53C127.2,106.69,156.56,90.78,177,59,179.21,55.47,179.21,52.61,177.05,49.05Zm-13,8C144.93,83.37,119,96.11,87.66,96.4c-31.22-2-55.28-14.81-73-39.32C13,54.83,13,53.25,14.59,50.91c35.81-52,113.54-52.07,149.44,0C165.62,53.16,165.69,54.74,164,57Z"/><path d="M89.37,16.73a37.27,37.27,0,1,0,37.3,37.48A37.37,37.37,0,0,0,89.37,16.73Zm-.14,62.6a25.34,25.34,0,1,1,25.49-25.24A25.41,25.41,0,0,1,89.23,79.33Z"/></g></g></svg>